<svg width="60" height="60" viewBox="0 0 60 60" fill="none" xmlns="http://www.w3.org/2000/svg">
<path d="M3.37305 23.0963V54.6339C3.37649 57.5962 5.77699 59.9966 8.73911 60H51.26C54.2227 59.9972 56.6239 57.5966 56.6274 54.6339V23.0963H3.37305ZM19.9585 52.7862C19.9585 53.8586 19.0891 54.7281 18.0166 54.7281H11.8585C10.7861 54.7281 9.91657 53.8587 9.91657 52.7862V50.3938C9.91657 49.3213 10.7859 48.4519 11.8585 48.4519H18.0166C19.089 48.4519 19.9585 49.3213 19.9585 50.3938V52.7862ZM19.9585 42.7443C19.9585 43.8168 19.0891 44.6862 18.0166 44.6862H11.8585C10.7861 44.6862 9.91657 43.8168 9.91657 42.7443V40.3519C9.91657 39.2795 10.7859 38.41 11.8585 38.41H18.0166C19.089 38.41 19.9585 39.2794 19.9585 40.3519V42.7443ZM19.9585 32.7025C19.9585 33.7751 19.0891 34.6444 18.0166 34.6444H11.8585C10.7861 34.6444 9.91657 33.7751 9.91657 32.7025V30.3101C9.91657 29.2377 10.7859 28.3682 11.8585 28.3682H18.0166C19.089 28.3682 19.9585 29.2376 19.9585 30.3101V32.7025ZM35.0212 52.7862C35.0212 53.8586 34.1518 54.7281 33.0793 54.7281H26.9211C25.8487 54.7281 24.9793 53.8587 24.9793 52.7862V50.3938C24.9793 49.3213 25.8486 48.4519 26.9211 48.4519H33.0793C34.1518 48.4519 35.0212 49.3213 35.0212 50.3938V52.7862ZM35.0212 42.7443C35.0212 43.8168 34.1518 44.6862 33.0793 44.6862H26.9211C25.8487 44.6862 24.9793 43.8168 24.9793 42.7443V40.3519C24.9793 39.2795 25.8486 38.41 26.9211 38.41H33.0793C34.1518 38.41 35.0212 39.2794 35.0212 40.3519V42.7443ZM35.0212 32.7025C35.0212 33.7751 34.1518 34.6444 33.0793 34.6444H26.9211C25.8487 34.6444 24.9793 33.7751 24.9793 32.7025V30.3101C24.9793 29.2377 25.8486 28.3682 26.9211 28.3682H33.0793C34.1518 28.3682 35.0212 29.2376 35.0212 30.3101V32.7025ZM50.084 52.7862C50.084 53.8586 49.2146 54.7281 48.1421 54.7281H41.9839C40.9114 54.7281 40.0421 53.8587 40.0421 52.7862V50.3938C40.0421 49.3213 40.9114 48.4519 41.9839 48.4519H48.1421C49.2146 48.4519 50.084 49.3213 50.084 50.3938V52.7862ZM50.084 42.7443C50.084 43.8168 49.2146 44.6862 48.1421 44.6862H41.9839C40.9114 44.6862 40.0421 43.8168 40.0421 42.7443V40.3519C40.0421 39.2795 40.9114 38.41 41.9839 38.41H48.1421C49.2146 38.41 50.084 39.2794 50.084 40.3519V42.7443ZM50.084 32.7025C50.084 33.7751 49.2146 34.6444 48.1421 34.6444H41.9839C40.9114 34.6444 40.0421 33.7751 40.0421 32.7025V30.3101C40.0421 29.2377 40.9114 28.3682 41.9839 28.3682H48.1421C49.2146 28.3682 50.084 29.2376 50.084 30.3101V32.7025ZM15.2751 9.65146H21.6266C22.2155 9.65081 22.6928 9.17349 22.6935 8.58455V1.69456C22.6928 0.758946 21.9347 0.00064518 20.999 0H15.9028C14.9675 0.00139789 14.2096 0.759269 14.2082 1.69456V8.58455C14.2089 9.17349 14.6862 9.65081 15.2751 9.65146ZM38.3727 9.65146H44.7254C45.3144 9.65081 45.7917 9.17349 45.7923 8.58455V1.69456C45.7909 0.759269 45.0331 0.00139789 44.0978 0H39.0003C38.065 0.00139789 37.3071 0.759269 37.3057 1.69456V8.58455C37.3064 9.17349 37.7837 9.65081 38.3727 9.65146Z" fill="#00B3FF"/>
<path d="M50.8219 7.26398H47.2972V8.58444C47.2966 10.0048 46.1456 11.1562 44.7252 11.1576H38.3724C36.9519 11.1562 35.8006 10.005 35.7992 8.58444V7.26398H24.1998V8.58444C24.1984 10.005 23.0472 11.1562 21.6266 11.1576H15.2751C13.8545 11.1562 12.7033 10.005 12.7019 8.58444V7.26398H9.17719C5.97291 7.26817 3.37649 9.86513 3.37305 13.0694V21.5899H56.6275V13.0694C56.6232 9.86491 54.0264 7.26817 50.8219 7.26398Z" fill="#00B3FF"/>
</svg>
