<svg width="60" height="60" viewBox="0 0 60 60" fill="none" xmlns="http://www.w3.org/2000/svg">
<g id="Frame">
<g id="Group">
<path id="Vector" d="M39.1871 11.3183C38.9611 10.9562 38.2579 10.6413 37.831 10.6413H25.7975C25.3705 10.6413 25.3559 10.9626 25.5673 11.333L46.8403 48.2744C47.0517 48.645 47.5539 48.6689 47.9609 48.5434L59.5643 44.8758C59.9724 44.7503 60.1199 44.2668 59.8939 43.9048L39.1871 11.3183ZM10.3445 48.2818L20.6095 26.3705V47.5691C20.6095 49.4662 22.6207 49.3574 23.0476 49.3574H43.0524C43.4793 49.3574 43.653 48.67 43.4417 48.2995L22.7735 11.6646C22.5621 11.2942 22.2199 11.2942 22.0086 11.6646L16.8332 20.7525C16.6218 21.1229 16.1489 21.5916 15.7754 21.7988C10.5404 24.7035 3.48046 28.5825 0.351758 29.9554C-0.117021 30.1615 -0.0908687 30.7527 0.274285 31.1106C0.970123 31.7908 2.44868 33.3468 3.81421 35.2208C4.60842 36.3112 5.30316 37.5271 5.87251 38.7336C6.05459 39.1197 6.02001 39.7371 5.80871 40.1084L1.36362 48.2995C1.1544 48.67 1.32915 49.3574 1.75602 49.3574H9.22203C9.64868 49.3575 10.1509 48.6627 10.3445 48.2818ZM4.37491 31.4006C4.18341 31.231 4.20541 31.005 4.43246 30.8857C6.63509 29.7326 17.056 24.2632 19.9535 22.4917C20.1723 22.3577 20.2517 22.4289 20.1356 22.657L10.2577 42.0674C10.1415 42.2955 10.0087 42.2767 9.95223 42.0266C9.58073 40.3857 8.07284 34.6715 4.37491 31.4006Z" fill="#4EC0DB"/>
</g>
</g>
</svg>
