<svg width="60" height="60" viewBox="0 0 60 60" fill="none" xmlns="http://www.w3.org/2000/svg">
<g id="Frame" clip-path="url(#clip0_433_589)">
<g id="Group">
<path id="Vector" d="M45.0807 7.25065C45.8215 4.07252 43.8456 0.895648 40.6674 0.154905C37.4893 -0.585839 34.3124 1.39005 33.5717 4.56818C32.831 7.74631 34.8069 10.9232 37.985 11.6639C41.1631 12.4047 44.34 10.4288 45.0807 7.25065Z" fill="#4EC0DB"/>
<path id="Vector_2" d="M35.2159 48.9813C35.6779 47.8257 36.054 46.6375 36.3411 45.4266C37.343 48.6343 38.1662 52.4806 38.5116 56.9683C38.644 58.6903 40.0826 60.0003 41.7818 60.0003C41.8664 60.0003 41.9515 59.9971 42.0371 59.9905C43.8448 59.8516 45.1983 58.2727 45.0594 56.465C44.0978 43.9798 39.801 35.7238 37.1423 31.7123C37.1232 31.5564 37.1064 31.4002 37.0918 31.2437C37.3934 30.9296 37.6866 30.6077 37.9713 30.2782C39.07 29.0021 40.1724 27.4742 41.2454 25.6449C41.4032 25.3756 41.5548 25.1027 41.7001 24.8265L39.6529 25.236C38.7753 26.6888 37.8859 27.9257 37.0052 28.978C37.0209 27.8963 37.1055 26.801 37.2361 25.7193L31.9756 26.771C31.5207 26.8622 31.0498 26.8312 30.6108 26.6812C30.1718 26.5311 29.7804 26.2674 29.4765 25.9168C29.1728 25.5661 28.9673 25.1413 28.8808 24.6855C28.7943 24.2298 28.8299 23.7592 28.984 23.3216L31.6866 15.6548C31.8681 15.1425 32.2037 14.6989 32.6474 14.3849C33.0911 14.0709 33.6211 13.902 34.1647 13.9013C34.4623 13.9013 34.7551 13.9514 35.0383 14.051C36.4039 14.5335 37.1231 16.0362 36.6416 17.4016L35.473 20.7141L38.1893 20.1712C38.3159 19.5465 38.4385 18.9471 38.5481 18.3882C38.769 17.6225 38.8391 16.8127 38.7735 16.036C39.4028 16.3546 39.9555 16.7315 40.387 17.1707C41.0025 17.8043 41.398 18.5358 41.5008 19.5113C41.655 19.4826 41.8114 19.4677 41.9683 19.467C42.3704 19.467 42.7547 19.5605 43.1001 19.7267C43.0389 18.2266 42.423 16.9811 41.5084 16.0638C40.6216 15.1728 39.4937 14.5537 38.287 14.1101C37.8305 13.1043 37.0784 12.3365 36.0735 12.0859C34.8119 11.7715 33.2311 12.0195 31.8542 12.9814C31.5335 12.9683 31.2343 12.9609 30.9606 12.9575C30.4011 11.9239 25.9909 4.50163 17.0507 9.3794C13.6617 11.2286 15.9525 14.907 17.0397 16.3436C18.9453 15.8949 21.043 15.5466 22.7921 15.6152C21.2981 15.875 19.2747 16.508 17.3197 17.202C16.4723 18.3635 13.357 23.4488 15.5154 33.0068C16.5897 37.7656 19.0827 38.9331 21.5636 38.7282C21.7094 39.4388 21.7974 40.2157 21.7963 41.0623C21.7963 41.802 21.7296 42.5979 21.5788 43.4513L23.1304 43.7271C23.2972 42.7854 23.3726 41.8968 23.3726 41.0623C23.3732 40.1812 23.286 39.3022 23.1126 38.4383C24.6277 38.0091 26.0198 37.2231 26.9347 36.6277C27.4477 36.6096 28.388 36.5168 29.6126 36.1394C29.8332 36.0716 30.0652 35.992 30.3032 35.9043C30.4245 36.8281 30.5101 37.8809 30.5093 39.0172C30.5101 41.3179 30.1639 43.9367 29.1196 46.5392C28.0699 49.1454 26.3492 51.7585 23.4131 54.1816C22.0128 55.3337 21.8116 57.403 22.9642 58.8033C24.1168 60.2033 26.1861 60.4042 27.5864 59.2522H27.5858C31.3746 56.1406 33.7998 52.5289 35.2159 48.9813ZM28.4789 34.815C28.6054 34.4893 28.7233 34.1603 28.8325 33.8284C29.0162 34.0845 29.2266 34.3203 29.4602 34.5318C29.3547 34.5678 29.2498 34.6025 29.149 34.6338C28.9102 34.707 28.6896 34.7646 28.4789 34.815Z" fill="#4EC0DB"/>
<path id="Vector_3" d="M34.6713 21.4102L36.1467 17.2264C36.3319 16.7009 36.3008 16.1234 36.0602 15.6208C35.8197 15.1182 35.3895 14.7318 34.8641 14.5464C34.6038 14.4545 34.328 14.4149 34.0524 14.4297C33.7768 14.4444 33.5069 14.5134 33.2579 14.6325C33.009 14.7517 32.786 14.9187 32.6016 15.1241C32.4173 15.3295 32.2752 15.5692 32.1835 15.8295V15.8287L29.4799 23.496C29.3558 23.846 29.3269 24.2227 29.3962 24.5875C29.4655 24.9523 29.6306 25.2921 29.8744 25.5722C30.117 25.8531 30.43 26.0644 30.7812 26.1846C31.1324 26.3047 31.5092 26.3293 31.873 26.2559L42.3798 24.1543C42.9182 24.0369 43.3888 23.7127 43.6905 23.2516C43.9921 22.7905 44.1006 22.2294 43.9926 21.6891C43.8845 21.1488 43.5686 20.6726 43.1128 20.363C42.6571 20.0534 42.0979 19.9351 41.5558 20.0338L34.6713 21.4102Z" fill="#4EC0DB"/>
</g>
</g>
<defs>
<clipPath id="clip0_433_589">
<rect width="60" height="60" fill="white"/>
</clipPath>
</defs>
</svg>
