<svg width="32" height="53" viewBox="0 0 32 53" fill="none" xmlns="http://www.w3.org/2000/svg">
<path d="M21.2159 41.9813C21.6779 40.8257 22.054 39.6375 22.3411 38.4266C23.343 41.6343 24.1662 45.4806 24.5116 49.9683C24.644 51.6903 26.0826 53.0003 27.7818 53.0003C27.8664 53.0003 27.9515 52.9971 28.0371 52.9905C29.8448 52.8516 31.1983 51.2727 31.0594 49.465C30.0978 36.9798 25.801 28.7238 23.1423 24.7123C23.1232 24.5564 23.1064 24.4002 23.0918 24.2437C23.3934 23.9296 23.6866 23.6077 23.9713 23.2782C25.07 22.0021 26.1724 20.4742 27.2454 18.6449C27.4032 18.3756 27.5548 18.1027 27.7001 17.8265L25.6529 18.236C24.7753 19.6888 23.8859 20.9257 23.0052 21.978C23.0209 20.8963 23.1055 19.801 23.236 18.7193L17.9756 19.771C17.5207 19.8622 17.0498 19.8312 16.6108 19.6812C16.1718 19.5311 15.7804 19.2674 15.4765 18.9168C15.1728 18.5661 14.9673 18.1413 14.8808 17.6855C14.7943 17.2298 14.8299 16.7592 14.984 16.3216L17.6866 8.65483C17.8681 8.14248 18.2037 7.69885 18.6474 7.38487C19.0911 7.07089 19.6211 6.90196 20.1647 6.90125C20.4623 6.90125 20.7551 6.95142 21.0383 7.05098C22.4039 7.5335 23.1231 9.03623 22.6416 10.4016L21.473 13.7141L24.1893 13.1712C24.3159 12.5465 24.4385 11.9471 24.5481 11.3882C24.769 10.6225 24.8391 9.81268 24.7735 9.03597C25.4028 9.35459 25.9555 9.73152 26.387 10.1707C27.0025 10.8043 27.398 11.5358 27.5008 12.5113C27.655 12.4826 27.8114 12.4677 27.9683 12.467C28.3704 12.467 28.7547 12.5605 29.1001 12.7267C29.0389 11.2266 28.423 9.98105 27.5084 9.06381C26.6216 8.17284 25.4937 7.55372 24.287 7.11008C23.8305 6.10431 23.0784 5.33653 22.0735 5.08595C20.8119 4.77153 19.2311 5.01949 17.8542 5.98139C17.5335 5.96825 17.2343 5.9609 16.9606 5.95748C16.4011 4.92388 11.9909 -2.49837 3.05069 2.3794C-0.338269 4.22859 1.95247 7.90702 3.03966 9.34356C4.94533 8.89492 7.043 8.54662 8.79212 8.61517C7.29806 8.87495 5.27471 9.50799 3.31966 10.202C2.47229 11.3635 -0.642966 16.4488 1.51539 26.0068C2.58971 30.7656 5.0827 31.9331 7.56361 31.7282C7.7094 32.4388 7.79739 33.2157 7.79634 34.0623C7.79634 34.802 7.72962 35.5979 7.57885 36.4513L9.13044 36.7271C9.29723 35.7854 9.37262 34.8968 9.37262 34.0623C9.37315 33.1812 9.28604 32.3022 9.11258 31.4383C10.6277 31.0091 12.0198 30.2231 12.9347 29.6277C13.4477 29.6096 14.388 29.5168 15.6126 29.1394C15.8332 29.0716 16.0652 28.992 16.3032 28.9043C16.4245 29.8281 16.5101 30.8809 16.5093 32.0172C16.5101 34.3179 16.1639 36.9367 15.1196 39.5392C14.0699 42.1454 12.3492 44.7585 9.41307 47.1816C8.01278 48.3337 7.81157 50.403 8.96417 51.8033C10.1168 53.2033 12.1861 53.4043 13.5864 52.2522H13.5858C17.3746 49.1406 19.7998 45.5289 21.2159 41.9813ZM14.4789 27.815C14.6054 27.4893 14.7233 27.1603 14.8325 26.8284C15.0162 27.0845 15.2266 27.3203 15.4602 27.5318C15.3547 27.5678 15.2498 27.6025 15.149 27.6338C14.9102 27.707 14.6896 27.7646 14.4789 27.815Z" fill="#00B3FF"/>
</svg>
