<svg width="60" height="40" viewBox="0 0 60 40" fill="none" xmlns="http://www.w3.org/2000/svg">
<path d="M39.1871 1.31834C38.9611 0.956254 38.2579 0.641327 37.831 0.641327H25.7975C25.3705 0.641327 25.3559 0.962601 25.5673 1.33301L46.8403 38.2745C47.0517 38.645 47.5539 38.669 47.9609 38.5434L59.5643 34.8758C59.9724 34.7503 60.1199 34.2669 59.8939 33.9048L39.1871 1.31834ZM10.3445 38.2818L20.6095 16.3705V37.5691C20.6095 39.4662 22.6207 39.3575 23.0476 39.3575H43.0524C43.4793 39.3575 43.653 38.6701 43.4417 38.2995L22.7735 1.66468C22.5621 1.29427 22.2199 1.29427 22.0086 1.66468L16.8332 10.7525C16.6218 11.1229 16.1489 11.5917 15.7754 11.7988C10.5404 14.7035 3.48046 18.5826 0.351759 19.9554C-0.117021 20.1616 -0.0908687 20.7527 0.274285 21.1106C0.970123 21.7908 2.44868 23.3468 3.81421 25.2209C4.60842 26.3112 5.30316 27.5271 5.87251 28.7336C6.05459 29.1197 6.02001 29.7371 5.80871 30.1085L1.36362 38.2995C1.1544 38.6701 1.32915 39.3575 1.75602 39.3575H9.22203C9.64868 39.3576 10.1509 38.6627 10.3445 38.2818ZM4.37491 21.4006C4.18341 21.231 4.20541 21.005 4.43246 20.8857C6.63509 19.7326 17.056 14.2632 19.9535 12.4917C20.1723 12.3578 20.2517 12.4289 20.1356 12.657L10.2577 32.0674C10.1415 32.2956 10.0087 32.2767 9.95223 32.0266C9.58073 30.3858 8.07284 24.6715 4.37491 21.4006Z" fill="#00B3FF"/>
</svg>
