<svg width="60" height="60" viewBox="0 0 60 60" fill="none" xmlns="http://www.w3.org/2000/svg">
<path d="M33.7223 9.01618C35.7839 6.95453 35.7839 3.61194 33.7223 1.55029C31.6606 -0.511357 28.318 -0.511358 26.2564 1.55029C24.1947 3.61194 24.1947 6.95453 26.2564 9.01618C28.318 11.0778 31.6606 11.0778 33.7223 9.01618Z" fill="#00B3FF"/>
<path d="M45.6177 50.8011L44.6159 51.0761L40.9706 25.9037C42.8971 24.8244 42.4486 21.9648 40.3308 21.4849L39.9068 18.5572C39.8848 18.4049 39.833 18.2584 39.7543 18.1261C39.6757 17.9938 39.5717 17.8783 39.4484 17.7862C39.3251 17.6941 39.1849 17.6272 39.0357 17.5893C38.8866 17.5514 38.7314 17.5433 38.5791 17.5654C37.9385 17.6582 37.4945 18.2525 37.5873 18.8931L37.9579 21.4522L31.4943 21.5503L28.3407 16.9575L30.7487 19.0437L31.3966 17.4307C32.1307 15.6031 31.2442 13.5264 29.4165 12.7922L23.8048 10.5382L17.1267 27.1648C16.3729 29.0418 14.269 29.8854 12.4577 29.1579L12.1897 29.0503L13.9416 40.7647L10.7089 52.8304C10.2954 54.3735 11.2624 55.9593 12.8468 56.2816L0 58.8763V60H60V47.1525L45.6177 50.8011ZM16.3876 55.5666L14.9651 55.8539C15.4989 55.4915 15.911 54.9447 16.0911 54.2726L19.4814 41.6196C19.5852 41.2326 19.6042 40.8277 19.5371 40.4326L18.0722 31.7971L18.6782 32.0405L24.5373 41.2425V53.5515C24.5365 54.1702 24.7427 54.7713 25.1229 55.2593C22.567 55.3491 19.0562 55.4726 16.3876 55.5666ZM30 55.0875L29.6391 55.1002C29.9463 54.6422 30.1099 54.1029 30.1091 53.5514V40.4306C30.1091 39.9103 29.9632 39.389 29.6732 38.9343L25.4339 32.2763L27.6586 26.7375C27.4113 26.5068 27.0887 26.1406 26.966 25.8252L24.7943 20.2436L28.2765 25.3152C28.5003 25.6397 28.8006 25.9041 29.1508 26.0851C29.5011 26.2661 29.8905 26.3581 30.2846 26.3529L38.6493 26.226L42.3383 51.7011L30 55.0875Z" fill="#00B3FF"/>
<path d="M8.8058 26.1759L12.9814 27.8531C14.1006 28.3025 15.3719 27.7597 15.8213 26.6408L22.717 9.47272C23.1664 8.3537 22.6237 7.08221 21.5047 6.6328L17.3291 4.95561C16.2101 4.5062 14.9386 5.04901 14.4892 6.16792L7.59349 23.336C7.14396 24.4549 7.68677 25.7264 8.8058 26.1759Z" fill="#00B3FF"/>
</svg>
