<svg width="60" height="60" viewBox="0 0 60 60" fill="none" xmlns="http://www.w3.org/2000/svg">
<g id="Frame">
<g id="Group">
<path id="Vector" d="M35.7936 14.525C38.3829 16.1485 40.1985 18.8957 40.5291 22.0846C41.6148 22.5954 42.7998 22.8607 43.9997 22.8617C48.536 22.8617 52.2127 19.185 52.2127 14.6494C52.2127 10.1131 48.536 6.43634 43.9997 6.43634C39.5067 6.43774 35.8621 10.0488 35.7936 14.525ZM30.413 31.3411C34.9494 31.3411 38.6261 27.6636 38.6261 23.128C38.6261 18.5924 34.9487 14.9157 30.413 14.9157C25.8774 14.9157 22.1986 18.5931 22.1986 23.1287C22.1986 27.6643 25.8774 31.3411 30.413 31.3411ZM33.8969 31.9009H26.9278C21.1293 31.9009 16.412 36.6189 16.412 42.4174V50.94L16.4336 51.0735L17.0207 51.2573C22.5543 52.9863 27.3618 53.5629 31.3188 53.5629C39.0475 53.5629 43.5272 51.3593 43.8033 51.2189L44.3519 50.9414H44.4106V42.4174C44.4127 36.6189 39.6953 31.9009 33.8969 31.9009ZM47.4849 23.4222H40.5696C40.4994 26.0924 39.3765 28.6266 37.4457 30.4724C42.5998 32.005 46.3709 36.7845 46.3709 42.43V45.0563C53.1988 44.8061 57.1334 42.8709 57.3927 42.7409L57.9413 42.4628H58V33.9374C58 28.1396 53.2827 23.4222 47.4849 23.4222ZM16.0017 22.8631C17.6084 22.8631 19.1033 22.3942 20.3696 21.5954C20.767 19.0253 22.1343 16.7053 24.1903 15.1127C24.1987 14.959 24.2134 14.8066 24.2134 14.6515C24.2134 10.1152 20.536 6.43844 16.0017 6.43844C11.4647 6.43844 7.78869 10.1152 7.78869 14.6515C7.78869 19.1857 11.4647 22.8631 16.0017 22.8631ZM23.3776 30.4724C21.4575 28.6354 20.3363 26.1174 20.2557 23.4614C19.9993 23.4425 19.7456 23.4222 19.4842 23.4222H12.5158C6.71733 23.4222 2 28.1396 2 33.9374V42.4614L2.02166 42.5928L2.60871 42.778C7.0479 44.1638 11.0098 44.8026 14.451 45.0039V42.43C14.4524 36.7845 18.222 32.0064 23.3776 30.4724Z" fill="#4EC0DB"/>
</g>
</g>
</svg>
