<svg width="56" height="48" viewBox="0 0 56 48" fill="none" xmlns="http://www.w3.org/2000/svg">
<path d="M33.7936 8.525C36.3829 10.1485 38.1985 12.8957 38.5291 16.0846C39.6148 16.5954 40.7998 16.8607 41.9996 16.8617C46.536 16.8617 50.2127 13.185 50.2127 8.64939C50.2127 4.11307 46.536 0.43634 41.9996 0.43634C37.5067 0.437738 33.8621 4.04877 33.7936 8.525ZM28.413 25.3411C32.9494 25.3411 36.6261 21.6636 36.6261 17.128C36.6261 12.5924 32.9487 8.91566 28.413 8.91566C23.8774 8.91566 20.1986 12.5931 20.1986 17.1287C20.1986 21.6643 23.8774 25.3411 28.413 25.3411ZM31.8969 25.9009H24.9278C19.1293 25.9009 14.412 30.6189 14.412 36.4174V44.94L14.4336 45.0735L15.0207 45.2573C20.5543 46.9863 25.3618 47.5629 29.3188 47.5629C37.0475 47.5629 41.5272 45.3593 41.8033 45.2189L42.3519 44.9414H42.4106V36.4174C42.4127 30.6189 37.6953 25.9009 31.8969 25.9009ZM45.4849 17.4222H38.5696C38.4994 20.0924 37.3765 22.6266 35.4457 24.4724C40.5998 26.005 44.3709 30.7845 44.3709 36.43V39.0563C51.1988 38.8061 55.1334 36.8709 55.3927 36.7409L55.9413 36.4628H56V27.9374C56 22.1396 51.2827 17.4222 45.4849 17.4222ZM14.0017 16.8631C15.6084 16.8631 17.1033 16.3942 18.3696 15.5954C18.767 13.0253 20.1343 10.7053 22.1903 9.11274C22.1987 8.95899 22.2134 8.80664 22.2134 8.65149C22.2134 4.11516 18.536 0.438437 14.0017 0.438437C9.46472 0.438437 5.78869 4.11516 5.78869 8.65149C5.78869 13.1857 9.46472 16.8631 14.0017 16.8631ZM21.3776 24.4724C19.4575 22.6354 18.3363 20.1174 18.2557 17.4614C17.9993 17.4425 17.7456 17.4222 17.4842 17.4222H10.5158C4.71733 17.4222 0 22.1396 0 27.9374V36.4614L0.0216648 36.5928L0.608711 36.778C5.0479 38.1638 9.00976 38.8026 12.451 39.0039V36.43C12.4524 30.7845 16.222 26.0064 21.3776 24.4724Z" fill="#00B3FF"/>
</svg>
