<svg width="16" height="16" viewBox="0 0 16 16" fill="none" xmlns="http://www.w3.org/2000/svg">
<path d="M13.0034 1.6001H11.7234V2.8801C11.7234 3.1361 11.5101 3.30676 11.2968 3.30676C11.0834 3.30676 10.8701 3.1361 10.8701 2.8801V1.6001H4.04345V2.8801C4.04345 3.1361 3.83011 3.30676 3.61678 3.30676C3.40345 3.30676 3.19011 3.1361 3.19011 2.8801V1.6001H1.91011C1.27011 1.6001 0.800781 2.15476 0.800781 2.8801V4.4161H14.4541V2.8801C14.4541 2.15476 13.6861 1.6001 13.0034 1.6001ZM0.800781 5.3121V13.1201C0.800781 13.8881 1.27011 14.4001 1.95278 14.4001H13.0461C13.7288 14.4001 14.4968 13.8454 14.4968 13.1201V5.3121H0.800781ZM4.59811 12.4801H3.57411C3.40345 12.4801 3.23278 12.3521 3.23278 12.1388V11.0721C3.23278 10.9014 3.36078 10.7308 3.57411 10.7308H4.64078C4.81145 10.7308 4.98212 10.8588 4.98212 11.0721V12.1388C4.93945 12.3521 4.81145 12.4801 4.59811 12.4801ZM4.59811 8.6401H3.57411C3.40345 8.6401 3.23278 8.5121 3.23278 8.29876V7.2321C3.23278 7.06143 3.36078 6.89076 3.57411 6.89076H4.64078C4.81145 6.89076 4.98212 7.01876 4.98212 7.2321V8.29876C4.93945 8.5121 4.81145 8.6401 4.59811 8.6401ZM8.01145 12.4801H6.94478C6.77412 12.4801 6.60345 12.3521 6.60345 12.1388V11.0721C6.60345 10.9014 6.73145 10.7308 6.94478 10.7308H8.01145C8.18212 10.7308 8.35278 10.8588 8.35278 11.0721V12.1388C8.35278 12.3521 8.22478 12.4801 8.01145 12.4801ZM8.01145 8.6401H6.94478C6.77412 8.6401 6.60345 8.5121 6.60345 8.29876V7.2321C6.60345 7.06143 6.73145 6.89076 6.94478 6.89076H8.01145C8.18212 6.89076 8.35278 7.01876 8.35278 7.2321V8.29876C8.35278 8.5121 8.22478 8.6401 8.01145 8.6401ZM11.4248 12.4801H10.3581C10.1874 12.4801 10.0168 12.3521 10.0168 12.1388V11.0721C10.0168 10.9014 10.1448 10.7308 10.3581 10.7308H11.4248C11.5954 10.7308 11.7661 10.8588 11.7661 11.0721V12.1388C11.7661 12.3521 11.6381 12.4801 11.4248 12.4801ZM11.4248 8.6401H10.3581C10.1874 8.6401 10.0168 8.5121 10.0168 8.29876V7.2321C10.0168 7.06143 10.1448 6.89076 10.3581 6.89076H11.4248C11.5954 6.89076 11.7661 7.01876 11.7661 7.2321V8.29876C11.7661 8.5121 11.6381 8.6401 11.4248 8.6401Z" fill="#00B3FF"/>
</svg>
