<svg width="12" height="16" viewBox="0 0 12 16" fill="none" xmlns="http://www.w3.org/2000/svg">
<path d="M6.00039 0.533447C2.91292 0.533447 0.400391 3.0634 0.400391 6.17389C0.400391 10.5935 5.47399 15.1569 5.6899 15.3486C5.77524 15.425 5.88573 15.4672 6.00027 15.4674C6.11481 15.4675 6.22538 15.4254 6.31088 15.3492C6.52679 15.1569 11.6004 10.5935 11.6004 6.17389C11.6004 3.0634 9.08786 0.533447 6.00039 0.533447ZM6.00039 9.24456C4.28492 9.24456 2.88928 7.84892 2.88928 6.13345C2.88928 4.41798 4.28492 3.02234 6.00039 3.02234C7.71586 3.02234 9.1115 4.41798 9.1115 6.13345C9.1115 7.84892 7.71586 9.24456 6.00039 9.24456Z" fill="#404040"/>
</svg>
