<svg width="16" height="16" viewBox="0 0 16 16" fill="none" xmlns="http://www.w3.org/2000/svg">
<path d="M11.9997 4.75007C11.9997 3.68925 11.5782 2.67188 10.8281 1.92177C10.078 1.17165 9.06065 0.750244 7.99983 0.750244C6.93901 0.750244 5.92164 1.17165 5.17152 1.92177C4.42141 2.67188 4 3.68925 4 4.75007C4 6.75799 5.48394 8.40432 7.41185 8.6907C7.40945 8.7115 7.39985 8.7291 7.39985 8.7499V15.1496C7.39985 15.3088 7.46307 15.4614 7.57558 15.5739C7.6881 15.6864 7.84071 15.7496 7.99983 15.7496C8.15895 15.7496 8.31156 15.6864 8.42408 15.5739C8.53659 15.4614 8.5998 15.3088 8.5998 15.1496V8.7499C8.5998 8.7291 8.5902 8.7107 8.5878 8.6907C10.5157 8.40432 11.9997 6.75799 11.9997 4.75007Z" fill="#00B3FF"/>
<circle cx="7.99975" cy="4.3501" r="1.19995" fill="white"/>
</svg>
